<svg xmlns="http://www.w3.org/2000/svg" xmlns:xlink="http://www.w3.org/1999/xlink" version="1.1" x="0px" y="0px" viewBox="25 20 50 60" enable-background="new 0 0 100 100" xml:space="preserve"><path d="M74.6,64.6L68.8,66.2l-0.3-1l5.8-1.601L73.5,60.7l-48.3,13L26,76.6l5.3-1.399l0.3,1L26.3,77.6l0.3,1L74.9,65.7L74.6,64.6z   M72.8,62l0.3,1l-15.5,4.1l-0.3-1L72.8,62z M29.1,74.7l-0.3-1l7.7-2.101l0.3,1L29.1,74.7z M43,72.5c-1.1,0.3-2,0.1-2.2-0.4  c-0.2-0.5,0.6-1.199,1.7-1.5c1.1-0.3,2-0.1,2.2,0.4C44.8,71.6,44.1,72.3,43,72.5z M48.5,71.6l-0.3-1L60.8,67.2l0.3,1L48.5,71.6z   M74.4,76.6l0.8-2.899L63.8,70.6L54,73.2l19.8,5.3l0.3-1l-5.3-1.4l0.3-1L74.4,76.6z M63.5,72.6l0.3-1l7.7,2.101l-0.3,1L63.5,72.6z   M36.7,68.6l-11.1-3l0.3-1l5.8,1.601l0.3-1L26.2,63.6L27,60.7L46.3,66l-1.8,0.5l-17-4.5l-0.3,1l15.3,4L36.7,68.6z M42.3,57.6L50,62  l7.7-4.4c7.2-4.1,9.2-13.399,4.5-20.2L50,20c-4.248,6.375-7,12.731-7,21.5c0,1.972-3,1.975-3,0v-7.2l-2.2,3.1  C33.1,44.2,35.2,53.5,42.3,57.6z M50,40.5c0,0,5,6,5,11s-2.2,7-5,7s-5-2-5-7S50,40.5,50,40.5z"/><text x="0" y="115" fill="#000000" font-size="5px" font-weight="bold" font-family="'Helvetica Neue', Helvetica, Arial-Unicode, Arial, Sans-serif">Created by Setyo Ari Wibowo</text><text x="0" y="120" fill="#000000" font-size="5px" font-weight="bold" font-family="'Helvetica Neue', Helvetica, Arial-Unicode, Arial, Sans-serif">from the Noun Project</text></svg>
