<svg xmlns="http://www.w3.org/2000/svg" xmlns:xlink="http://www.w3.org/1999/xlink" version="1.1" x="0px" y="0px" viewBox="4 0 40 44" enable-background="new 0 0 48 48" xml:space="preserve"><g><path d="M38.9,15.8H21.6L15,4.5c-0.7-1.2-2-2-3.4-2c-0.7,0-1.4,0.2-2,0.5C7.8,4.1,7.1,6.5,8.2,8.4l4.3,7.4H9.1   C7.4,15.8,6,17.3,6,19v0.1c0,1.4,1,2.6,2.3,3c-0.9,2.1-1.4,4.5-1.4,6.8c0,5.4,2.6,10.5,6.9,13.6c-0.7,0.6-1.2,1.4-1.2,2.4   c0,1.7,1.4,3,3,3h17c1.7,0,3-1.4,3-3c0-1.1-0.6-2-1.4-2.5c4.1-3.2,6.6-8.2,6.6-13.5c0-2.3-0.5-4.6-1.4-6.7c1.5-0.3,2.6-1.6,2.6-3.1   V19C42,17.3,40.6,15.8,38.9,15.8z M10.6,4.8c0.9-0.5,2.1-0.2,2.6,0.7l6,10.3h-4.5L9.9,7.4C9.4,6.5,9.7,5.3,10.6,4.8z M32.5,46h-17   c-0.6,0-1-0.5-1-1c0-0.6,0.5-1,1-1H16h15.5h1c0.6,0,1,0.5,1,1C33.5,45.5,33.1,46,32.5,46z M31.3,42H16.3c-4.6-2.7-7.5-7.6-7.5-13   c0-2.2,0.5-4.4,1.4-6.4h27.1c0.9,2,1.4,4.2,1.4,6.4C38.8,34.3,35.9,39.3,31.3,42z M40,19.2c0,0.7-0.5,1.2-1.2,1.2H9.1   c-0.7,0-1.2-0.5-1.2-1.2V19c0-0.7,0.5-1.2,1.2-1.2h29.7c0.7,0,1.2,0.5,1.2,1.2V19.2z"/><path d="M29.1,12c0,1.7,1.4,3.1,3.1,3.1c1.7,0,3.1-1.4,3.1-3.1s-1.4-3.1-3.1-3.1C30.5,8.8,29.1,10.2,29.1,12z M33.3,12   c0,0.6-0.5,1.1-1.1,1.1s-1.1-0.5-1.1-1.1s0.5-1.1,1.1-1.1S33.3,11.3,33.3,12z"/><path d="M24.7,10.7c1.7,0,3.1-1.4,3.1-3.1c0-1.7-1.4-3.1-3.1-3.1c-1.7,0-3.1,1.4-3.1,3.1C21.6,9.3,23,10.7,24.7,10.7z M24.7,6.4   c0.6,0,1.1,0.5,1.1,1.1c0,0.6-0.5,1.1-1.1,1.1s-1.1-0.5-1.1-1.1C23.6,6.9,24.1,6.4,24.7,6.4z"/><path d="M31.1,6.3c1.7,0,3.1-1.4,3.1-3.1S32.8,0,31.1,0c-1.7,0-3.1,1.4-3.1,3.1S29.3,6.3,31.1,6.3z M31.1,2c0.6,0,1.1,0.5,1.1,1.1   s-0.5,1.1-1.1,1.1c-0.6,0-1.1-0.5-1.1-1.1S30.4,2,31.1,2z"/></g><text x="0" y="63" fill="#000000" font-size="5px" font-weight="bold" font-family="'Helvetica Neue', Helvetica, Arial-Unicode, Arial, Sans-serif">Created by Vectors Market</text><text x="0" y="68" fill="#000000" font-size="5px" font-weight="bold" font-family="'Helvetica Neue', Helvetica, Arial-Unicode, Arial, Sans-serif">from the Noun Project</text></svg>
