<svg xmlns="http://www.w3.org/2000/svg" data-name="Layer 1" viewBox="0 0 100 100" x="0px" y="0px"><title>Artboard 50</title><path d="M32,68.52c-9.33,2.15-31,9-31,26.22a3.39,3.39,0,0,0,3.38,3.38H95.65A3.39,3.39,0,0,0,99,94.73c0-17.2-21.69-24.06-31-26.22a.26.26,0,0,1-.19-.25v-3.7a28.29,28.29,0,0,0,4.74-9.38C75,52.77,76.08,49,76.66,46.9c.95-3.34,1.9-8.18-.72-11.64l-.11-.15C77.09,29,78.66,14.69,67.76,7.42a6.72,6.72,0,0,0,1.92-4.89.65.65,0,0,0-.23-.45A.68.68,0,0,0,69,1.92c-.14,0-13.77,1.55-20.34.19C41.9.72,34.49,5.84,33,11.08a9.89,9.89,0,0,0-6.46,3.65c-3,3.67-3.89,9.51-2.71,17.35.08,1,.2,2,.38,3l-.12.15c-2.61,3.46-1.66,8.3-.71,11.64.58,2.06,1.66,5.87,4.1,8.28a28.42,28.42,0,0,0,4.74,9.45v3.64A.25.25,0,0,1,32,68.52ZM50,81.68a17.88,17.88,0,0,1-14.66-7.29,7,7,0,0,0,3.19-3.79A22.7,22.7,0,0,0,43.42,73a19.73,19.73,0,0,0,13.16,0,23.18,23.18,0,0,0,4.88-2.46,7,7,0,0,0,3.2,3.84A17.89,17.89,0,0,1,50,81.68ZM37.22,25.3c2.71-1.65,6.18-1.58,10.32.18C56,29.11,62.35,28.88,66.19,28a8.18,8.18,0,0,1,3.11,8.09,57.85,57.85,0,0,0-38-.22C31.87,33,33.34,27.67,37.22,25.3ZM62,40.93a3.15,3.15,0,1,1-3.15-3.15A3.15,3.15,0,0,1,62,40.93Zm-17.77,0a3.15,3.15,0,1,1-3.15-3.15A3.15,3.15,0,0,1,44.27,40.93ZM29.19,45.24c-.12-.44-.23-.85-.32-1.23a57.85,57.85,0,0,0,42.26,0c-.09.38-.19.79-.32,1.23-1.54,5.43-2.79,5.94-3.14,6a.64.64,0,0,0-.59.54c-.9,5.79-5.5,13-12.57,15.54a13.55,13.55,0,0,1-9.08,0c-7.36-2.59-11.66-9.88-12.54-15.55a.64.64,0,0,0-.59-.54C32,51.19,30.72,50.67,29.19,45.24Zm13,11.8v-.82a1.38,1.38,0,0,1,1.38-1.38H56.39a1.38,1.38,0,0,1,1.38,1.38V57a1.38,1.38,0,0,1-1.38,1.38H43.6A1.38,1.38,0,0,1,42.23,57Z"/><text x="0" y="115" fill="#000000" font-size="5px" font-weight="bold" font-family="'Helvetica Neue', Helvetica, Arial-Unicode, Arial, Sans-serif">Created by Gregor Cresnar</text><text x="0" y="120" fill="#000000" font-size="5px" font-weight="bold" font-family="'Helvetica Neue', Helvetica, Arial-Unicode, Arial, Sans-serif">from the Noun Project</text></svg>
