<svg xmlns:dc="http://purl.org/dc/elements/1.1/" xmlns:cc="http://creativecommons.org/ns#" xmlns:rdf="http://www.w3.org/1999/02/22-rdf-syntax-ns#" xmlns:svg="http://www.w3.org/2000/svg" xmlns="http://www.w3.org/2000/svg" xmlns:sodipodi="http://sodipodi.sourceforge.net/DTD/sodipodi-0.dtd" xmlns:inkscape="http://www.inkscape.org/namespaces/inkscape" viewBox="0 0 350.48001 480" version="1.1" x="0px" y="0px"><g transform="translate(-214.584,-338.4305)"><path style="" d="m 485.223,338.4305 -12.784,119.5829 c -0.182,1.6588 -0.255,3.3579 -0.255,5.0161 l 0,13.9972 c 0,12.4274 5.422,23.4466 13.997,31.0688 10.232,9.1134 14.887,22.9815 14.887,36.6516 l 0,192.6429 c 0,2.8584 -0.327,5.5972 -0.809,8.4144 -1.243,6.9178 -1.943,14.535 -1.943,22.6544 0,29.4535 9.082,53.3187 20.308,53.3187 11.226,0 20.307,-23.8652 20.307,-53.3187 0,-8.1607 -0.699,-15.7781 -1.943,-22.6544 -0.54,-2.7745 -0.89,-5.556 -0.89,-8.4144 l 0,-192.6429 c 0,-13.7117 4.737,-27.4569 14.968,-36.5707 8.575,-7.6221 13.998,-18.7223 13.998,-31.1497 l 0,-13.9163 c 0,-1.699 -0.106,-3.3615 -0.328,-5.0164 L 552.034,338.4305 535.528,460.5211 518.618,338.4305 501.951,460.5211 485.203,338.4305 Z m -207.935,8.981 c -34.59,0 -62.704,44.9374 -62.704,100.4884 0,46.189 19.446,85.0409 45.875,96.8472 l 0,200.0055 c -1.699,7.6221 -2.749,16.3648 -2.749,25.8099 0,28.3346 8.768,51.2959 19.581,51.2959 10.811,0 19.498,-22.9613 19.498,-51.2959 0,-9.4451 -0.97,-18.1878 -2.669,-25.8099 l 0,-200.0055 c 26.429,-11.8063 45.794,-50.6582 45.794,-96.8472 0,-55.5098 -28.033,-100.4884 -62.623,-100.4884 z m 98.789,0 0,169.0985 0,225.168 c -1.739,7.912 -2.833,17.0441 -2.833,26.8618 0,29.453 9.083,53.3186 20.308,53.3186 11.226,0 20.389,-23.8656 20.389,-53.3186 0,-9.8177 -1.13,-18.9498 -2.913,-26.8618 l 0,-195.8791 0.07,0.1824 c 16.155,-20.4641 26.699,-53.6938 26.699,-91.1836 0,-62.1378 -26.065,-107.3654 -61.733,-107.3654 z m -131.962,76.6202 c 4.268,1.0756 6.822,5.4029 5.745,9.6283 -0.371,1.575 -8.462,36.4415 21.197,66.102 3.067,3.1063 3.067,8.0583 0,11.1653 -1.574,1.5313 -3.59,2.3444 -5.663,2.3444 -2.03,0 -4.051,-0.8131 -5.582,-2.3444 -36.247,-36.2469 -25.903,-79.4093 -25.405,-81.2323 1.035,-4.2669 5.359,-6.8231 9.708,-5.6633 z" fill="#000000"/></g><text x="0" y="498.4279" fill="#000000" font-size="5px" font-weight="bold" font-family="'Helvetica Neue', Helvetica, Arial-Unicode, Arial, Sans-serif">Created by Hopkins</text><text x="0" y="503.4279" fill="#000000" font-size="5px" font-weight="bold" font-family="'Helvetica Neue', Helvetica, Arial-Unicode, Arial, Sans-serif">from the Noun Project</text></svg>
