<svg xmlns="http://www.w3.org/2000/svg" xmlns:xlink="http://www.w3.org/1999/xlink" version="1.1" x="0px" y="0px" viewBox="0 0 100 100" style="enable-background:new 0 0 100 100;" xml:space="preserve"><path d="M97.2,49c0.9-1,0.9-2.6-0.2-3.6h0l-11-10c-0.5-0.5-1.2-0.7-1.8-0.7c-0.7,0-1.3,0.3-1.8,0.8l-1.5,1.6L78.6,35  l1.5-1.6c0.5-0.5,0.7-1.2,0.7-1.8c0-0.7-0.3-1.3-0.8-1.8L66.5,17.7C55.5,7.7,34.9-0.8,30.2,4.4c-0.5,0.5-0.7,1.2-0.7,1.8  c0,0.7,0.4,1.2,0.8,1.8c0.9,1.1,2.8,0.5,2.8,0.5C35.3,9.2,52,22.2,52,22.2l-9.1,10c-0.9,1-0.9,2.6,0.2,3.6l2.5,2.3L6.8,76.1  c-2.5,2.7-4.1,6-4.7,9.1c-0.6,3.5,0.3,6.6,2.5,8.6l1.1,1c1.5,1.4,3.5,2.1,5.7,2.1c4,0,8.4-2.2,11.7-6c0.1-0.1,0.1-0.1,0.1-0.2  l34-42.2l3.8,3.5c0.5,0.4,1.1,0.7,1.8,0.7c0.7,0,1.3-0.3,1.7-0.8l4.8-5.3l1.7,1.6l-2.5,2.7c-0.4,0.5-0.7,1.2-0.7,1.8  c0,0.7,0.3,1.3,0.8,1.8l11,9.9c0.5,0.4,1.1,0.7,1.7,0.7l0.1,0.6l0-0.6c0.7,0,1.3-0.3,1.8-0.8L97.2,49z M19.3,87.6  c-2.6,2.9-5.7,4.3-7.9,4.3c-1,0-1.8-0.3-2.3-0.7l-1.1-1c-0.9-0.8-1.2-2.2-0.9-4c0.4-2.1,1.6-4.5,3.4-6.5l38.9-38.1l4.1,3.7  L19.3,87.6z M81.3,59l-7.2-6.5l2.5-2.7c0.4-0.5,0.7-1.2,0.7-1.8c0-0.7-0.3-1.3-0.8-1.8l-5.5-5c-0.5-0.5-1.1-0.7-1.8-0.7  c-0.7,0-1.3,0.3-1.7,0.8l-4.8,5.3L48.4,33.7l9.1-10c0.5-0.5,0.7-1.2,0.7-1.8c0-0.7-0.3-1.3-0.8-1.8c0,0-5-4.4-7.4-6.3l-4.1-3.3  l4.7,2.4c4.6,2.4,8.8,5.3,12.5,8.6l11.5,10.5l-1.5,1.6c-0.5,0.5-0.7,1.2-0.7,1.8c0,0.7,0.3,1.3,0.8,1.8l6.2,5.7  c1,0.9,2.6,0.9,3.6-0.2l1.5-1.6l7.2,6.5L81.3,59z"/><text x="0" y="115" fill="#000000" font-size="5px" font-weight="bold" font-family="'Helvetica Neue', Helvetica, Arial-Unicode, Arial, Sans-serif">Created by Thomas' designs</text><text x="0" y="120" fill="#000000" font-size="5px" font-weight="bold" font-family="'Helvetica Neue', Helvetica, Arial-Unicode, Arial, Sans-serif">from the Noun Project</text></svg>
