<svg xmlns="http://www.w3.org/2000/svg" xmlns:xlink="http://www.w3.org/1999/xlink" version="1.1" x="0px" y="0px" viewBox="10 10 80 80" enable-background="new 0 0 100 100" xml:space="preserve"><g display="none"><g display="inline"><g><line fill="#000000" stroke="#E6E6E7" stroke-width="0.25" stroke-miterlimit="10" x1="5" y1="93.3" x2="95" y2="93.3"/><line fill="#000000" stroke="#E6E6E7" stroke-width="0.25" stroke-miterlimit="10" x1="5" y1="91.2" x2="95" y2="91.2"/><line fill="#000000" stroke="#E6E6E7" stroke-width="0.25" stroke-miterlimit="10" x1="5" y1="89.2" x2="95" y2="89.2"/><line fill="#000000" stroke="#E6E6E7" stroke-width="0.25" stroke-miterlimit="10" x1="5" y1="87.1" x2="95" y2="87.1"/><line fill="#000000" stroke="#E6E6E7" stroke-width="0.25" stroke-miterlimit="10" x1="5" y1="85" x2="95" y2="85"/><line fill="#000000" stroke="#E6E6E7" stroke-width="0.25" stroke-miterlimit="10" x1="5" y1="83" x2="95" y2="83"/><line fill="#000000" stroke="#E6E6E7" stroke-width="0.25" stroke-miterlimit="10" x1="5" y1="80.9" x2="95" y2="80.9"/><line fill="#000000" stroke="#E6E6E7" stroke-width="0.25" stroke-miterlimit="10" x1="5" y1="78.9" x2="95" y2="78.9"/><line fill="#000000" stroke="#E6E6E7" stroke-width="0.25" stroke-miterlimit="10" x1="5" y1="76.8" x2="95" y2="76.8"/><line fill="#000000" stroke="#E6E6E7" stroke-width="0.25" stroke-miterlimit="10" x1="5" y1="74.7" x2="95" y2="74.7"/><line fill="#000000" stroke="#E6E6E7" stroke-width="0.25" stroke-miterlimit="10" x1="5" y1="72.7" x2="95" y2="72.7"/><line fill="#000000" stroke="#E6E6E7" stroke-width="0.25" stroke-miterlimit="10" x1="5" y1="70.6" x2="95" y2="70.6"/><line fill="#000000" stroke="#E6E6E7" stroke-width="0.25" stroke-miterlimit="10" x1="5" y1="68.5" x2="95" y2="68.5"/><line fill="#000000" stroke="#E6E6E7" stroke-width="0.25" stroke-miterlimit="10" x1="5" y1="66.5" x2="95" y2="66.5"/><line fill="#000000" stroke="#E6E6E7" stroke-width="0.25" stroke-miterlimit="10" x1="5" y1="64.4" x2="95" y2="64.4"/><line fill="#000000" stroke="#E6E6E7" stroke-width="0.25" stroke-miterlimit="10" x1="5" y1="62.4" x2="95" y2="62.4"/><line fill="#000000" stroke="#E6E6E7" stroke-width="0.25" stroke-miterlimit="10" x1="5" y1="60.3" x2="95" y2="60.3"/><line fill="#000000" stroke="#E6E6E7" stroke-width="0.25" stroke-miterlimit="10" x1="5" y1="58.2" x2="95" y2="58.2"/><line fill="#000000" stroke="#E6E6E7" stroke-width="0.25" stroke-miterlimit="10" x1="5" y1="56.2" x2="95" y2="56.2"/><line fill="#000000" stroke="#E6E6E7" stroke-width="0.25" stroke-miterlimit="10" x1="5" y1="54.1" x2="95" y2="54.1"/><line fill="#000000" stroke="#E6E6E7" stroke-width="0.25" stroke-miterlimit="10" x1="5" y1="52.1" x2="95" y2="52.1"/><line fill="#000000" stroke="#E6E6E7" stroke-width="0.25" stroke-miterlimit="10" x1="5" y1="47.9" x2="95" y2="47.9"/><line fill="#000000" stroke="#E6E6E7" stroke-width="0.25" stroke-miterlimit="10" x1="5" y1="45.9" x2="95" y2="45.9"/><line fill="#000000" stroke="#E6E6E7" stroke-width="0.25" stroke-miterlimit="10" x1="5" y1="43.8" x2="95" y2="43.8"/><line fill="#000000" stroke="#E6E6E7" stroke-width="0.25" stroke-miterlimit="10" x1="5" y1="41.8" x2="95" y2="41.8"/><line fill="#000000" stroke="#E6E6E7" stroke-width="0.25" stroke-miterlimit="10" x1="5" y1="39.7" x2="95" y2="39.7"/><line fill="#000000" stroke="#E6E6E7" stroke-width="0.25" stroke-miterlimit="10" x1="5" y1="37.6" x2="95" y2="37.6"/><line fill="#000000" stroke="#E6E6E7" stroke-width="0.25" stroke-miterlimit="10" x1="5" y1="35.6" x2="95" y2="35.6"/><line fill="#000000" stroke="#E6E6E7" stroke-width="0.25" stroke-miterlimit="10" x1="5" y1="33.5" x2="95" y2="33.5"/><line fill="#000000" stroke="#E6E6E7" stroke-width="0.25" stroke-miterlimit="10" x1="5" y1="31.4" x2="95" y2="31.4"/><line fill="#000000" stroke="#E6E6E7" stroke-width="0.25" stroke-miterlimit="10" x1="5" y1="29.4" x2="95" y2="29.4"/><line fill="#000000" stroke="#E6E6E7" stroke-width="0.25" stroke-miterlimit="10" x1="5" y1="27.3" x2="95" y2="27.3"/><line fill="#000000" stroke="#E6E6E7" stroke-width="0.25" stroke-miterlimit="10" x1="5" y1="25.3" x2="95" y2="25.3"/><line fill="#000000" stroke="#E6E6E7" stroke-width="0.25" stroke-miterlimit="10" x1="5" y1="23.2" x2="95" y2="23.2"/><line fill="#000000" stroke="#E6E6E7" stroke-width="0.25" stroke-miterlimit="10" x1="5" y1="21.1" x2="95" y2="21.1"/><line fill="#000000" stroke="#E6E6E7" stroke-width="0.25" stroke-miterlimit="10" x1="5" y1="19.1" x2="95" y2="19.1"/><line fill="#000000" stroke="#E6E6E7" stroke-width="0.25" stroke-miterlimit="10" x1="5" y1="17" x2="95" y2="17"/><line fill="#000000" stroke="#E6E6E7" stroke-width="0.25" stroke-miterlimit="10" x1="5" y1="15" x2="95" y2="15"/><line fill="#000000" stroke="#E6E6E7" stroke-width="0.25" stroke-miterlimit="10" x1="5" y1="12.9" x2="95" y2="12.9"/><line fill="#000000" stroke="#E6E6E7" stroke-width="0.25" stroke-miterlimit="10" x1="5" y1="10.8" x2="95" y2="10.8"/><line fill="#000000" stroke="#E6E6E7" stroke-width="0.25" stroke-miterlimit="10" x1="5" y1="8.8" x2="95" y2="8.8"/><line fill="#000000" stroke="#E6E6E7" stroke-width="0.25" stroke-miterlimit="10" x1="5" y1="6.7" x2="95" y2="6.7"/><line fill="#000000" stroke="#E6E6E7" stroke-width="0.25" stroke-miterlimit="10" x1="93.3" y1="5" x2="93.3" y2="95"/><line fill="#000000" stroke="#E6E6E7" stroke-width="0.25" stroke-miterlimit="10" x1="91.2" y1="5" x2="91.2" y2="95"/><line fill="#000000" stroke="#E6E6E7" stroke-width="0.25" stroke-miterlimit="10" x1="89.2" y1="5" x2="89.2" y2="95"/><line fill="#000000" stroke="#E6E6E7" stroke-width="0.25" stroke-miterlimit="10" x1="87.1" y1="5" x2="87.1" y2="95"/><line fill="#000000" stroke="#E6E6E7" stroke-width="0.25" stroke-miterlimit="10" x1="85.1" y1="5" x2="85.1" y2="95"/><line fill="#000000" stroke="#E6E6E7" stroke-width="0.25" stroke-miterlimit="10" x1="83" y1="5" x2="83" y2="95"/><line fill="#000000" stroke="#E6E6E7" stroke-width="0.25" stroke-miterlimit="10" x1="80.9" y1="5" x2="80.9" y2="95"/><line fill="#000000" stroke="#E6E6E7" stroke-width="0.25" stroke-miterlimit="10" x1="78.9" y1="5" x2="78.9" y2="95"/><line fill="#000000" stroke="#E6E6E7" stroke-width="0.25" stroke-miterlimit="10" x1="76.8" y1="5" x2="76.8" y2="95"/><line fill="#000000" stroke="#E6E6E7" stroke-width="0.25" stroke-miterlimit="10" x1="74.8" y1="5" x2="74.8" y2="95"/><line fill="#000000" stroke="#E6E6E7" stroke-width="0.25" stroke-miterlimit="10" x1="72.7" y1="5" x2="72.7" y2="95"/><line fill="#000000" stroke="#E6E6E7" stroke-width="0.25" stroke-miterlimit="10" x1="70.6" y1="5" x2="70.6" y2="95"/><line fill="#000000" stroke="#E6E6E7" stroke-width="0.25" stroke-miterlimit="10" x1="68.6" y1="5" x2="68.6" y2="95"/><line fill="#000000" stroke="#E6E6E7" stroke-width="0.25" stroke-miterlimit="10" x1="66.5" y1="5" x2="66.5" y2="95"/><line fill="#000000" stroke="#E6E6E7" stroke-width="0.25" stroke-miterlimit="10" x1="64.4" y1="5" x2="64.4" y2="95"/><line fill="#000000" stroke="#E6E6E7" stroke-width="0.25" stroke-miterlimit="10" x1="62.4" y1="5" x2="62.4" y2="95"/><line fill="#000000" stroke="#E6E6E7" stroke-width="0.25" stroke-miterlimit="10" x1="60.3" y1="5" x2="60.3" y2="95"/><line fill="#000000" stroke="#E6E6E7" stroke-width="0.25" stroke-miterlimit="10" x1="58.3" y1="5" x2="58.3" y2="95"/><line fill="#000000" stroke="#E6E6E7" stroke-width="0.25" stroke-miterlimit="10" x1="56.2" y1="5" x2="56.2" y2="95"/><line fill="#000000" stroke="#E6E6E7" stroke-width="0.25" stroke-miterlimit="10" x1="54.1" y1="5" x2="54.1" y2="95"/><line fill="#000000" stroke="#E6E6E7" stroke-width="0.25" stroke-miterlimit="10" x1="52.1" y1="5" x2="52.1" y2="95"/><line fill="#000000" stroke="#E6E6E7" stroke-width="0.25" stroke-miterlimit="10" x1="48" y1="5" x2="48" y2="95"/><line fill="#000000" stroke="#E6E6E7" stroke-width="0.25" stroke-miterlimit="10" x1="45.9" y1="5" x2="45.9" y2="95"/><line fill="#000000" stroke="#E6E6E7" stroke-width="0.25" stroke-miterlimit="10" x1="43.8" y1="5" x2="43.8" y2="95"/><line fill="#000000" stroke="#E6E6E7" stroke-width="0.25" stroke-miterlimit="10" x1="41.8" y1="5" x2="41.8" y2="95"/><line fill="#000000" stroke="#E6E6E7" stroke-width="0.25" stroke-miterlimit="10" x1="39.7" y1="5" x2="39.7" y2="95"/><line fill="#000000" stroke="#E6E6E7" stroke-width="0.25" stroke-miterlimit="10" x1="37.7" y1="5" x2="37.7" y2="95"/><line fill="#000000" stroke="#E6E6E7" stroke-width="0.25" stroke-miterlimit="10" x1="35.6" y1="5" x2="35.6" y2="95"/><line fill="#000000" stroke="#E6E6E7" stroke-width="0.25" stroke-miterlimit="10" x1="33.5" y1="5" x2="33.5" y2="95"/><line fill="#000000" stroke="#E6E6E7" stroke-width="0.25" stroke-miterlimit="10" x1="31.5" y1="5" x2="31.5" y2="95"/><line fill="#000000" stroke="#E6E6E7" stroke-width="0.25" stroke-miterlimit="10" x1="29.4" y1="5" x2="29.4" y2="95"/><line fill="#000000" stroke="#E6E6E7" stroke-width="0.25" stroke-miterlimit="10" x1="27.3" y1="5" x2="27.3" y2="95"/><line fill="#000000" stroke="#E6E6E7" stroke-width="0.25" stroke-miterlimit="10" x1="25.3" y1="5" x2="25.3" y2="95"/><line fill="#000000" stroke="#E6E6E7" stroke-width="0.25" stroke-miterlimit="10" x1="23.2" y1="5" x2="23.2" y2="95"/><line fill="#000000" stroke="#E6E6E7" stroke-width="0.25" stroke-miterlimit="10" x1="21.2" y1="5" x2="21.2" y2="95"/><line fill="#000000" stroke="#E6E6E7" stroke-width="0.25" stroke-miterlimit="10" x1="19.1" y1="5" x2="19.1" y2="95"/><line fill="#000000" stroke="#E6E6E7" stroke-width="0.25" stroke-miterlimit="10" x1="17" y1="5" x2="17" y2="95"/><line fill="#000000" stroke="#E6E6E7" stroke-width="0.25" stroke-miterlimit="10" x1="15" y1="5" x2="15" y2="95"/><line fill="#000000" stroke="#E6E6E7" stroke-width="0.25" stroke-miterlimit="10" x1="12.9" y1="5" x2="12.9" y2="95"/><line fill="#000000" stroke="#E6E6E7" stroke-width="0.25" stroke-miterlimit="10" x1="10.9" y1="5" x2="10.9" y2="95"/><line fill="#000000" stroke="#E6E6E7" stroke-width="0.25" stroke-miterlimit="10" x1="8.8" y1="5" x2="8.8" y2="95"/><line fill="#000000" stroke="#E6E6E7" stroke-width="0.25" stroke-miterlimit="10" x1="6.7" y1="5" x2="6.7" y2="95"/><line fill="#000000" stroke="#BBBCBF" stroke-width="0.25" stroke-miterlimit="10" x1="5" y1="50" x2="95" y2="50"/><line fill="#000000" stroke="#BBBCBF" stroke-width="0.25" stroke-miterlimit="10" x1="50" y1="5" x2="50" y2="95"/><line fill="#000000" stroke="#BBBCBF" stroke-width="0.25" stroke-miterlimit="10" x1="95" y1="5" x2="5" y2="95"/><line fill="#000000" stroke="#BBBCBF" stroke-width="0.25" stroke-miterlimit="10" x1="5" y1="5" x2="95" y2="95"/><circle fill="#000000" stroke="#D0D1D3" stroke-width="0.1932" stroke-miterlimit="10" cx="50" cy="50" r="20.6"/><circle fill="#000000" stroke="#BBBCBF" stroke-width="0.25" stroke-miterlimit="10" cx="50" cy="50" r="20.6"/><circle fill="#000000" stroke="#BBBCBF" stroke-width="0.25" stroke-miterlimit="10" cx="50" cy="50" r="8.2"/><circle fill="#000000" stroke="#BBBCBF" stroke-width="0.25" stroke-miterlimit="10" cx="50" cy="50" r="32.9"/><circle fill="#000000" stroke="#BBBCBF" stroke-width="0.25" stroke-miterlimit="10" cx="50" cy="50" r="45"/><path fill="#000000" stroke="#BBBCBF" stroke-width="0.25" stroke-miterlimit="10" d="M76.8,95H23.2     c-3.4,0-6.2-2.8-6.2-6.2V11.2C17,7.8,19.8,5,23.2,5h53.6c3.4,0,6.2,2.8,6.2,6.2v77.6C83,92.2,80.2,95,76.8,95z"/><path fill="#000000" stroke="#BBBCBF" stroke-width="0.25" stroke-miterlimit="10" d="M5,76.8V23.2     c0-3.4,2.8-6.2,6.2-6.2h77.6c3.4,0,6.2,2.8,6.2,6.2v53.6c0,3.4-2.8,6.2-6.2,6.2H11.2C7.8,83,5,80.2,5,76.8z"/><path fill="#000000" stroke="#BBBCBF" stroke-width="0.25" stroke-miterlimit="10" d="M82.9,89.2H17.1     c-3.4,0-6.2-2.8-6.2-6.2V17.1c0-3.4,2.8-6.2,6.2-6.2h65.8c3.4,0,6.2,2.8,6.2,6.2v65.8C89.1,86.4,86.3,89.2,82.9,89.2z"/><rect x="5" y="5" fill="#000000" stroke="#BBBCBF" stroke-width="0.25" stroke-miterlimit="10" width="90" height="90"/></g></g></g><g><path d="M80.5,10h-61c-4.7,0-8.5,3.8-8.5,8.5v63c0,4.7,3.8,8.5,8.5,8.5h61c4.7,0,8.5-3.8,8.5-8.5v-63C89,13.8,85.2,10,80.5,10z    M78,58H58v20H42V58H22V42h20V22h16v20h20V58z"/></g><text x="0" y="115" fill="#000000" font-size="5px" font-weight="bold" font-family="'Helvetica Neue', Helvetica, Arial-Unicode, Arial, Sans-serif">Created by UNiCORN</text><text x="0" y="120" fill="#000000" font-size="5px" font-weight="bold" font-family="'Helvetica Neue', Helvetica, Arial-Unicode, Arial, Sans-serif">from the Noun Project</text></svg>
