<svg xmlns="http://www.w3.org/2000/svg" xmlns:xlink="http://www.w3.org/1999/xlink" xml:space="preserve" version="1.1" style="shape-rendering:geometricPrecision;text-rendering:geometricPrecision;image-rendering:optimizeQuality;" viewBox="60 0 220 320" x="0px" y="0px" fill-rule="evenodd" clip-rule="evenodd"><defs><style type="text/css">

    .fil0 {fill:black}

  </style></defs><g><path class="fil0" d="M56 150l59 -80 21 34 -80 46zm130 -132c2,1 4,1 5,5 1,-2 2,-4 6,-5 -3,-1 -5,-2 -5,-5 -1,3 -3,4 -6,5zm-58 17c2,1 6,1 7,7 1,-3 2,-6 7,-7 -4,-1 -6,-3 -7,-7 -1,4 -3,6 -7,7zm88 -5c6,3 14,3 17,17 2,-8 6,-14 18,-17 -10,-3 -15,-7 -17,-17 -3,10 -8,14 -18,17zm-9 52c3,1 8,2 10,9 0,-4 2,-8 9,-9 -5,-2 -8,-4 -9,-10 -2,6 -5,8 -10,10zm-49 -32c6,2 14,3 17,16 2,-8 5,-14 17,-17 -10,-2 -15,-6 -16,-16 -3,10 -8,14 -18,17zm-91 103l94 163c-2,2 -5,3 -7,5l-94 -163 7 -5zm3 -1l113 -66 94 163 -113 65 -94 -162zm103 -27l-75 44 15 26 75 -44 -15 -26z"/></g><text x="0" y="348" fill="#000000" font-size="5px" font-weight="bold" font-family="'Helvetica Neue', Helvetica, Arial-Unicode, Arial, Sans-serif">Created by mbok sumirna</text><text x="0" y="353" fill="#000000" font-size="5px" font-weight="bold" font-family="'Helvetica Neue', Helvetica, Arial-Unicode, Arial, Sans-serif">from the Noun Project</text></svg>
