<svg xmlns="http://www.w3.org/2000/svg" xmlns:xlink="http://www.w3.org/1999/xlink" xml:space="preserve" version="1.1" style="shape-rendering:geometricPrecision;text-rendering:geometricPrecision;image-rendering:optimizeQuality;" viewBox="0 0 312 270" x="0px" y="0px" fill-rule="evenodd" clip-rule="evenodd"><defs><style type="text/css">

    .fil0 {fill:black}

  </style></defs><g><path class="fil0" d="M290 211c2,1 4,1 6,-2 4,5 6,4 8,1 7,7 10,1 6,-3 -1,-1 -2,-2 -4,-4 1,-1 2,-3 3,-5 3,-4 2,-7 0,-12 0,-7 2,-7 -4,-10 -6,0 -12,-1 -18,-1 -21,-9 -18,-34 -40,-39 2,0 4,0 6,1 -3,-11 -8,-23 -22,-30 -1,-17 -15,-27 -28,-26 -10,2 -22,0 -28,-4 -1,-6 -2,-12 -2,-18 5,-6 9,-15 9,-26 0,-44 -52,-44 -52,0 0,13 7,29 20,33 -4,-1 -8,-2 -11,-4 0,5 -1,10 -2,15 -6,4 -18,6 -28,4 -13,-1 -27,9 -28,26 -14,7 -19,19 -23,30 3,-1 5,-1 7,-1 -19,5 -22,31 -40,39 -6,0 -12,1 -18,1 -6,3 -4,3 -4,10 -2,5 -3,8 0,12 1,2 2,4 3,5 -2,2 -3,3 -5,4 -3,4 0,10 7,3 2,3 4,4 8,-1 2,3 4,3 6,2 1,12 11,21 30,26 1,-7 7,-8 14,-4 21,13 48,8 70,8 -36,3 -49,3 -65,-4 -6,-3 -14,-8 -17,0 0,0 0,1 0,1 1,2 2,3 5,4 -2,3 -2,6 2,7 -1,3 -2,6 4,6 -1,3 -2,5 3,5 -5,7 14,2 15,1 13,-1 27,-1 40,-2l33 -3 33 3c13,1 27,1 40,2 1,1 20,6 15,-1 5,0 4,-2 3,-5 6,0 5,-3 4,-6 4,-1 4,-4 2,-7 3,-1 4,-2 5,-4 20,-6 31,-15 32,-27zm-241 -31c-4,20 -8,21 -25,29 13,-6 24,-6 25,-29zm214 0c4,20 8,21 25,29 -13,-6 -24,-6 -25,-29zm-53 24c0,0 -1,1 -1,2 -19,6 -38,17 -58,28 -1,-1 58,-33 59,-30zm-100 2c0,0 1,1 1,1 15,4 31,11 47,18 0,-1 -48,-21 -48,-19zm141 32c-39,21 -33,14 -83,17 9,-2 17,-3 28,-2 9,-1 18,-1 27,-4 9,-2 20,-10 28,-14 0,0 0,3 0,3zm-230 -53c-3,3 -7,7 -10,10 -4,-4 -3,-4 -3,-10 0,1 13,0 13,0zm33 0c10,-10 16,-11 27,-30 0,-2 1,-5 0,-9 1,2 1,5 1,8 8,-7 10,-6 23,-26 -6,30 15,43 9,72 -12,-7 -42,-8 -60,-15zm237 0c3,3 7,7 10,10 4,-4 3,-4 3,-10 0,1 -13,0 -13,0zm-33 0c-10,-10 -16,-11 -27,-30 0,-2 -1,-5 0,-9 -1,2 -2,5 -1,8 -8,-7 -10,-6 -23,-26 6,30 -15,43 -9,72 12,-7 42,-8 60,-15z"/></g><text x="0" y="279" fill="#000000" font-size="5px" font-weight="bold" font-family="'Helvetica Neue', Helvetica, Arial-Unicode, Arial, Sans-serif">Created by yasminvisible</text><text x="0" y="284" fill="#000000" font-size="5px" font-weight="bold" font-family="'Helvetica Neue', Helvetica, Arial-Unicode, Arial, Sans-serif">from the Noun Project</text></svg>
