<svg xmlns="http://www.w3.org/2000/svg" xmlns:xlink="http://www.w3.org/1999/xlink" version="1.1" x="0px" y="0px" viewBox="5 10 42 40" enable-background="new 0 0 50.4 50.4" xml:space="preserve"><g><circle fill="#000000" cx="23.588" cy="38.103" r="3.601"/></g><g><path d="M46.73,12.567V-0.007l-9.669,8.956c0,0-0.649,0.558-1.813,1.108c-0.447,0.21-1.018,0.341-1.384,0.388L15.002,10.5   c-1.388,0.013-2.069,1.051-2.389,1.993l10.071-0.008c0.279,0,0.491,0.298,0.492,0.577c0,0.281-0.228,0.509-0.505,0.509   l-10.264,0.009c-0.008,0-0.015-0.005-0.025-0.007l-3.768,0.007c-1.074,0.001-1.941,0.875-1.939,1.954   c0,1.07,0.874,1.937,1.948,1.936l1.654-0.001v21.448l-2.833,1.652c-0.8,0.468-1.071,1.494-0.604,2.295   c0.466,0.799,1.492,1.07,2.294,0.603l5.152-3.004l2.1,2.073c-0.084,0.083-0.172,0.164-0.238,0.249   c-2.782,3.354-3.906,7.617-3.906,7.617h10.733c0,0-0.003-1.571-0.37-3.42l5.729,1.482c0.139,0.036,0.28,0.053,0.42,0.053   c0.551,0,1.08-0.271,1.396-0.746l4.438-6.657c0.514-0.771,0.306-1.812-0.465-2.326c-0.765-0.51-1.787-0.306-2.307,0.445V27.989   L46.73,12.567z M15.729,37.17c-0.541-0.531-1.369-0.639-2.024-0.255l-2.496,1.456V17.467l7.042-0.003l2.71-1.666   c0.233-0.144,0.544-0.07,0.693,0.17c0.145,0.24,0.072,0.55-0.165,0.694L20.19,17.46h0.014l-6.199,3.793   c-0.91,0.574-1.185,1.77-0.615,2.681c0.371,0.592,1.007,0.91,1.656,0.909c0.35,0,0.704-0.099,1.024-0.297l0.777-0.476v14.204   L15.729,37.17z M28.02,44.917l-6.005-1.554c-0.005-0.001-0.01-0.001-0.016-0.002l-4.219-4.168V23.498l5.38-3.301l7.304-0.015   c0.465,0.034,1.244,0.213,1.303,0.98c0.065,0.84-0.621,1.437-0.621,1.437l0.022-0.004l-2.953,3.004   c-0.756,0.767-1.153,2.44-0.223,3.284c0.396,0.358,1.014,0.589,1.611,0.537c0.456-0.032,0.913-0.174,1.281-0.491v11.503h0.125   L28.02,44.917z"/></g><text x="0" y="65.4" fill="#000000" font-size="5px" font-weight="bold" font-family="'Helvetica Neue', Helvetica, Arial-Unicode, Arial, Sans-serif">Created by Luis Prado</text><text x="0" y="70.4" fill="#000000" font-size="5px" font-weight="bold" font-family="'Helvetica Neue', Helvetica, Arial-Unicode, Arial, Sans-serif">from the Noun Project</text></svg>
