<svg xmlns="http://www.w3.org/2000/svg" data-name="Layer 2" viewBox="0 0 100 100" x="0px" y="0px"><title>GANE_ICON_100</title><path d="M94.26,7.87a1.47,1.47,0,0,0-1.48-1.47h-.1L73.21,7.57a1.5,1.5,0,0,0-1,.5L31.71,53.62c-.37-.5-.75-1-1.12-1.51-.72-1-1.41-2-2.11-3.11a1.5,1.5,0,0,0-1.76-.61,14.61,14.61,0,0,0-9.43,9.43,1.5,1.5,0,0,0,.58,1.73A89,89,0,0,1,26.3,66L13.79,78.55a3.49,3.49,0,0,0-3.84.73l-.46.46a3.46,3.46,0,0,0-1,1.88,3.4,3.4,0,0,0-1.85.93L6.21,83a3.49,3.49,0,0,0,0,4.93l6.5,6.5a3.49,3.49,0,0,0,4.93,0L18.1,94a3.46,3.46,0,0,0,1-1.85,3.46,3.46,0,0,0,1.85-1l.46-.46a3.49,3.49,0,0,0,.73-3.84L34.65,74.34a90.68,90.68,0,0,1,6.87,8.86,1.5,1.5,0,0,0,1.8.55,16.31,16.31,0,0,0,9.33-9.33,1.5,1.5,0,0,0-.58-1.82c-1.17-.75-2.37-1.57-3.59-2.45-.53-.38-1-.78-1.55-1.17L92.59,28.49a1.5,1.5,0,0,0,.5-1L94.26,8s0,0,0-.07S94.26,7.89,94.26,7.87ZM74,10.53l14.9-.9L37.82,60.73c-1.49-1.54-2.85-3-3.92-4.31L33.58,56Zm-57.92,70L28.53,68c.63.59,1.27,1.18,1.88,1.79l.49.49c.59.59,1.15,1.19,1.72,1.8L20.17,84.57ZM16,91.87l-.46.46a.48.48,0,0,1-.69,0l-6.5-6.5a.48.48,0,0,1,0-.69l.47-.46a.49.49,0,0,1,.69,0l6.5,6.5a.49.49,0,0,1,0,.69Zm3.28-3.28-.46.46a.49.49,0,0,1-.69,0l-6.5-6.5a.49.49,0,0,1,0-.69l.46-.46a.49.49,0,0,1,.69,0l6.5,6.5A.49.49,0,0,1,19.26,88.6ZM49.38,74.4a13,13,0,0,1-6.09,6.07,93.07,93.07,0,0,0-7.46-9.34c-2-2.17-4.1-4.28-6.32-6.3a91.6,91.6,0,0,0-9-7.09,11.33,11.33,0,0,1,6.08-6.1c.5.76,1,1.49,1.52,2.21.72,1,1.48,2,2.25,3l0,0c.36.47.8,1,1.28,1.57A80.25,80.25,0,0,0,41.94,68.82c.6.51,1.17,1,1.72,1.42l0,0c1,.79,2,1.56,3,2.31S48.51,73.83,49.38,74.4Zm-4.82-7.32-.45-.37c-1.32-1.13-2.75-2.46-4.17-3.85L91,11.76l-.89,14.9Z"/>
<text x="0" y="115" fill="#000000" font-size="5px" font-weight="bold" font-family="'Helvetica Neue', Helvetica, Arial-Unicode, Arial, Sans-serif">Created by Postcat</text><text x="0" y="120" fill="#000000" font-size="5px" font-weight="bold" font-family="'Helvetica Neue', Helvetica, Arial-Unicode, Arial, Sans-serif">from the Noun Project</text></svg>
