<svg xmlns="http://www.w3.org/2000/svg" xmlns:xlink="http://www.w3.org/1999/xlink" version="1.1" x="0px" y="0px" viewBox="20 30 60 60" enable-background="new 0 0 100 100" xml:space="preserve"><path d="M22.225,81.292c1.562,1.562,3.33,2.327,3.948,1.709h0l42.426-42.427c0.619-0.619-0.146-2.387-1.708-3.949  c-1.562-1.562-3.33-2.327-3.948-1.708L20.516,77.344v0.001C19.897,77.963,20.663,79.73,22.225,81.292z M62.942,37.746  c0.312-0.312,1.196,0.07,1.978,0.851s1.162,1.666,0.851,1.978l-10.43,10.43l-2.828-2.828L62.942,37.746z"/><path d="M70.044,29.889c-7.218-1.687-7.993-1.309-11.104,5.418c1.686-7.217,1.307-7.993-5.419-11.104  c7.216,1.687,7.992,1.309,11.104-5.418C62.938,26.002,63.316,26.778,70.044,29.889z"/><path d="M80.83,33.501c-4.163,4.259-4.227,4.95-0.896,9.888c-4.26-4.163-4.95-4.226-9.89-0.896c4.164-4.259,4.228-4.949,0.896-9.888  C75.2,36.768,75.892,36.831,80.83,33.501z"/><path d="M55.257,36.405c-3.146-2.563-3.619-2.563-6.767,0c2.563-3.147,2.563-3.62,0-6.767c3.147,2.563,3.62,2.563,6.767,0  C52.692,32.785,52.692,33.258,55.257,36.405z"/><path d="M72.232,46.862c-3.093,0.812-3.312,1.113-3.144,4.308c-0.811-3.094-1.111-3.313-4.305-3.144  c3.093-0.812,3.312-1.113,3.143-4.307C68.739,46.813,69.039,47.033,72.232,46.862z"/><text x="0" y="115" fill="#000000" font-size="5px" font-weight="bold" font-family="'Helvetica Neue', Helvetica, Arial-Unicode, Arial, Sans-serif">Created by Matthew R. Miller</text><text x="0" y="120" fill="#000000" font-size="5px" font-weight="bold" font-family="'Helvetica Neue', Helvetica, Arial-Unicode, Arial, Sans-serif">from the Noun Project</text></svg>
