<svg xmlns="http://www.w3.org/2000/svg" xmlns:xlink="http://www.w3.org/1999/xlink" version="1.1" x="0px" y="0px" viewBox="0 0 164 164" enable-background="new 0 0 164 164" xml:space="preserve"><path fill-rule="evenodd" clip-rule="evenodd" d="M87.366,33.647c0.359-1.616-7.17,1.342-6.223,0.588  c0.487-0.387,8.873-2.393,5.564-7.534c-1.245-1.934,5.469,2.617,6.172,2.788C93.36,32.633,91.273,32.29,87.366,33.647L87.366,33.647  z M81.84,164c22.6,0,43.06-9.161,57.87-23.972c14.81-14.81,23.971-35.27,23.971-57.869S154.52,39.1,139.71,24.29  S104.439,0.32,81.84,0.32s-43.06,9.16-57.87,23.97C9.161,39.1,0,59.56,0,82.159s9.16,43.061,23.97,57.87S59.24,164,81.84,164  L81.84,164z M35.217,138.607c12.663,10.47,28.908,16.762,46.623,16.762c19.087,0,36.468-7.306,49.5-19.271l0.002-0.012  c-0.057-4.819,2.269-5.404,2.408-8.347c0.162-3.438,3.418-0.346,7.401-4.903c4.238-2.407,2.903-4.877,2.985-9.099  c0.031-1.614,0.145-3.238,1.821-5.332c2.095-2.105,2.944-0.925,3.859-1.563c0.845-0.589,0.675-2.195,1.502-2.473  c0.117-0.04,0.231-0.09,0.345-0.145c2.198-6.963,3.385-14.376,3.385-22.066c0-1.207-0.03-2.407-0.088-3.599  c-0.756,0.959-1.575,1.502-1.529,2.301c0.106,1.908-1.345,2.593-0.411,5.79c0.47,1.604,1.199,2.868-1.331,5.921  c-3.359-0.946-0.736-3.865-1.907-4.682c-2.688-1.874-2.803-2.535-2.468-6.131c0.238-2.561-0.245-4.702-1.472-6.977  c-1.911-3.546-4.071-0.969-8.035-3.708c-3.303,5.084-0.251,8.927-7.392,12.181c-2.511,1.146-4.482,0.379-7.437,1.485  c-2.063-5.026-3.983-4.983-5.496-6.911c-3.195-4.069-2.26-9.979-3.539-8.625c-1.24,11.134,2.538,11.369,3.263,14.942  c0.413,2.039,2.955,2.416,4.918,2.882c2.199,0.521,6.173-1.107,8.31,0.999c1.629,2.38-1.786,3.219-0.314,4.576  c2.136,1.969-1.229,4.974-2.813,6.12c-5.535,4.008-3.67,7.05-8.535,8.909c-2.148,0.821-2.73,5.041-1.968,8.446  c6.155,4.074,10.409-2.328,8.175,5.076c-0.629,2.083-0.522,4.451-1.561,6.2c-0.812,1.369-3.909-0.306-4.584,2.795  c-6.175,0.824-4.925-3.324-7.545-5.617c-0.422,3.977-2.096,5.504-3.483,7.938c-1.89,3.314-5.002,5.443-8.995,5.786  c-6.879,0.592-4.49,4.961-6.327,4.279c-2.925-1.084-6.624-5.51-6.654-10.42c-0.025-4.249-2.66-6.452-2.059-8.694  c1.376-5.134,1.139-7.611-1.112-12.17c-0.899-1.822-3.669-1.927-5.307-7.109c-1.197-3.786-3.404-7.624-4.893-8.258  c-3.841-1.636-5.329,1.821-12.833,0.632c-3.193-0.505-4.949-0.978-7.905-1.727c-2.988-0.758-6.183-4.426-4.798-5.865  c2.505-2.602-0.415-4.329,0.76-7.527c0.709-1.929-1.508-3.543,1.111-6.941c0.633-2.748,0.277-5.37,2.725-6.802  c2.655-1.553,2.352-5.457,4.33-5.651c5.275-0.519,7.009-3.648,3.302-4.603c-4.852-1.249-1.561-0.236-2.066-7.116  c-0.464-6.335,3.609-0.424,6.494-3.38c5.079-5.204,1.673-1.729-1.111-5.223c-1.311-1.645-2.677-0.112-4.546-0.268  c0.655-3.464-0.377-6.519,9.371-11.317c4.781,7.607-1.315,4.212,7.112,10.196c2.586-6.831,5.178-8.469,3.874-12.79  c-0.72-2.383,0.695-7.178,6.054-8.847c1.181-0.367,4.267,2.05,5.638,1.717c3.719-0.904,8.078-4.098,11.143-3.283  c2.229,0.591-2.495,3.917,5.204,6.806c1.558,0.584,3.136,2.237,8.368-0.725c1.242-0.703,1.774-1.467,3.428-2.607  c-3.984-3.626-7.486-5.426-11.118-7.181C99.151,10.516,90.679,8.95,81.84,8.95c-14.56,0-28.126,4.25-39.528,11.578  c0.679,1.66,1.965,3.831,1.969,5.104c0.005,1.755-2.287,3.471-1.369,4.588c3.341,4.069,2.748,8.402,1.406,7.576  c-3.08-1.895-4.142,1.154-7.083,1.145c-6.978-0.025-1.447,7.285-6.37,9.259c-1.731,0.039-5.141,0.193-6.636,0.453  c-1.96,0.34-2.04,3.498-3.585,4.189c-2.058,0.923-3.75,1.1-4.765,1.764c-1.117,0.73-2.099,1.685-2.958,2.8  C10.145,65.138,8.63,73.471,8.63,82.159c0,1.425,0.042,2.839,0.123,4.242c0.302,2.171,0.694,3.837,1.139,4.563  c3.294,4.246,5.13-0.121,7.572,4.182c0.797,1.405-1.447,3.494,3.185,6.002c3.097,6.337,5.632,1.549,7.367,2.541  c6.103,3.493,7.716,4.237,6.496,14.193c-0.975,7.961,3.872,6.872-0.438,11.287c-0.391,1.672-4.258,4.361,0.63,6.998  C35.428,136.558,35.337,137.494,35.217,138.607L35.217,138.607z M78.478,50.72c0.865-0.315,1.178-1.252,2.875-1.084  c1.063,0.874,1.985,0.916,2.979,1.374c2.834,1.22,2.798,4.195,4.156,3.52c1.719-0.856,4.483,0.794,6.059,1.22  c8.632,2.334,9.174,0.259,14.727,5.09c-0.973,8.12-6.56,7.341-9.31,1.193c-1.779-3.978-9.304-1.245-12.031-0.677  c-3.29,0.309-4.839-5.26-6.378-6.13c-3.549-2.007-4.834,0.736-9.821-2.145C75.085,49.28,71.967,52.083,78.478,50.72L78.478,50.72z   M114.445,26.273c3.222-0.957,3.977-2.444,5.276-2.483c1.978-0.06,3.529,1.655,7.33,3.862c-2.64-0.366-8.728-1.807-14.8,3.457  C111.045,32.156,115.945,27.335,114.445,26.273z"/><text x="0" y="179" fill="#000000" font-size="5px" font-weight="bold" font-family="'Helvetica Neue', Helvetica, Arial-Unicode, Arial, Sans-serif">Created by Aleksandr Vector</text><text x="0" y="184" fill="#000000" font-size="5px" font-weight="bold" font-family="'Helvetica Neue', Helvetica, Arial-Unicode, Arial, Sans-serif">from the Noun Project</text></svg>
